<svg xmlns="http://www.w3.org/2000/svg" viewBox="0 0 96 96" role="img" aria-label="Anonymous cat avatar">
  <rect width="96" height="96" rx="28" fill="#dff2e6"/>
  <path d="M25 40 18 22c-.7-1.8 1.3-3.4 2.9-2.3l16.8 11.6A35.8 35.8 0 0 1 48 29.8c3.5 0 7 .5 10.3 1.5l16.8-11.6c1.6-1.1 3.6.5 2.9 2.3l-7 18c3.8 5 6 11.1 6 17.7C77 75 63.8 84 48 84S19 75 19 57.7c0-6.6 2.2-12.7 6-17.7Z" fill="#f7fbf4" stroke="#1e6548" stroke-width="4" stroke-linejoin="round"/>
  <circle cx="37" cy="55" r="4.5" fill="#14231b"/>
  <circle cx="59" cy="55" r="4.5" fill="#14231b"/>
  <path d="M48 61.5c-2.8 0-5 1.6-5 3.2s2.2 3 5 3 5-1.4 5-3-2.2-3.2-5-3.2Z" fill="#1e6548"/>
  <path d="M41 71c2 2.4 4.3 3.5 7 3.5s5-1.1 7-3.5" fill="none" stroke="#1e6548" stroke-width="3" stroke-linecap="round"/>
  <path d="M30 63h-8M32 69l-8 3M66 63h8M64 69l8 3" stroke="#1e6548" stroke-width="3" stroke-linecap="round"/>
</svg>
